# xmcd CD database file
#
# Track frame offsets:
#	150
#	24777
#	47671
#	79592
#	107535
#	127173
#	145630
#	174086
#	197349
#	216928
#
# Disc length: 3160 seconds
#
# Revision: 0
# Processed by: cddbd v1.5.2PL0 Copyright (c) Steve Scherf et al.
# Submitted via: CDex 1.81
#
DISCID=760c560a
DTITLE=David Matthews Trio - Unknown Standards
DYEAR=1988
DGENRE=Jazz
TTITLE0=Snowflake Bop
TTITLE1=Weep No More
TTITLE2=The Peacocks
TTITLE3=Russian Lullaby
TTITLE4=Memories Through Thick Glasses
TTITLE5=So Sorry Please
TTITLE6=Clouds
TTITLE7=Don't Walk Away
TTITLE8=Why Do I Care
TTITLE9=Nuages
EXTD=YEAR: 1988
EXTT0=
EXTT1=
EXTT2=
EXTT3=
EXTT4=
EXTT5=
EXTT6=
EXTT7=
EXTT8=
EXTT9=
PLAYORDER=
